<svg width="64" height="16" viewBox="0 0 64 16" fill="none" xmlns="http://www.w3.org/2000/svg">
<path fill-rule="evenodd" clip-rule="evenodd" d="M0.763672 8.0047V15.8703L2.25932 15.8308L3.75498 15.7913L3.82454 10.6791L3.89411 5.56686L7.3028 10.324C9.17758 12.9404 10.819 15.2096 10.9504 15.3666C11.1777 15.6385 11.1891 15.5287 11.1889 13.0782L11.1884 10.5043L7.63407 5.56519C5.67915 2.84867 3.98134 0.51656 3.86099 0.382578C3.67943 0.180421 3.39769 0.1391 2.20298 0.1391H0.763672V8.0047ZM12.1724 7.92567V15.7217H13.7039H15.2356L15.1996 7.96519L15.1637 0.208665L13.668 0.169152L12.1724 0.129639V7.92567ZM16.2071 1.66953V3.19997H20.1664H24.1258L24.4768 3.65214C24.67 3.90091 26.6654 6.70258 28.9113 9.87823L32.9945 15.6521L37.7487 15.6887L42.5028 15.7253V10.0887V4.45214H40.9724H39.4419V8.55649V12.6608H37.0216H34.6013L33.2906 10.8174C32.5696 9.80352 30.6091 7.03301 28.9338 4.66084C27.2586 2.28867 25.8227 0.301743 25.7431 0.245534C25.6636 0.189326 23.4855 0.142439 20.9028 0.141186L16.2071 0.1391V1.66953ZM43.4767 1.66953V3.19997H46.0622C47.4842 3.19997 48.6269 3.25103 48.6013 3.31336C48.5758 3.37569 47.4794 4.42432 46.1647 5.6438C44.8501 6.86313 43.7614 7.91705 43.7457 7.98578C43.7298 8.05451 45.5567 9.82035 47.8055 11.91L51.8941 15.7093L54.1202 15.7117L56.3463 15.7142L55.3676 14.7788C54.8293 14.2643 52.9664 12.5308 51.2278 10.9263C48.2444 8.17305 48.0804 7.99594 48.3108 7.77736C48.4451 7.65006 50.308 5.93082 52.4506 3.95684C54.5932 1.983 56.3671 0.316491 56.3926 0.253465C56.4182 0.190578 53.5225 0.1391 49.9578 0.1391H43.4767V1.66953ZM59.0131 1.348C56.1994 4.01458 55.3185 4.84686 54.1878 5.90745C53.5385 6.51656 52.4515 7.54947 51.7722 8.20296L50.5373 9.39114L51.6206 10.4C52.2163 10.9547 52.7409 11.4081 52.7859 11.4073C52.8311 11.4066 53.275 11.0323 53.7724 10.5758L54.6767 9.74578L57.4593 9.77722L60.2419 9.80867L60.2795 12.7652L60.3171 15.7217H61.8447H63.3724V7.9304V0.1391H61.8305H60.2887L59.0131 1.348ZM31.4419 2.47427C30.6002 3.67691 29.9178 4.72442 29.9254 4.8022C29.9331 4.87997 30.3319 5.49256 30.8119 6.16345L31.6844 7.38334L33.163 5.29166L34.6414 3.19997H38.5721H42.5028V1.7391V0.27823L37.7376 0.28296L32.9724 0.287691L31.4419 2.47427ZM58.5028 6.12477L56.9028 7.64811L58.5724 7.61527L60.2419 7.58258L60.2814 6.08693C60.3031 5.26425 60.2718 4.59364 60.2119 4.59642C60.1519 4.5992 59.3828 5.28693 58.5028 6.12477ZM16.2071 7.99997V9.46084H19.4767H22.7463V7.99997V6.5391H19.4767H16.2071V7.99997ZM25.6761 10.6387L24.2468 12.6608H20.2269H16.2071V14.1913V15.7217H20.9969H25.7866L27.2604 13.6391C28.0711 12.4936 28.7702 11.4628 28.8142 11.3483C28.8771 11.1842 27.7804 9.40352 27.199 8.72567C27.1475 8.66571 26.4623 9.52651 25.6761 10.6387ZM45.8199 14.157L44.4762 15.6521L46.5093 15.6908L48.5426 15.7295L49.0357 15.2275L49.5289 14.7255L48.4183 13.6932C47.8074 13.1254 47.2753 12.6611 47.2357 12.6614C47.1961 12.6615 46.559 13.3346 45.8199 14.157Z" fill="#7F22FE"/>
</svg>
