<svg width="64" height="16" viewBox="0 0 64 16" fill="none" xmlns="http://www.w3.org/2000/svg">
<g clip-path="url(#clip0_2002_8166)">
<path fill-rule="evenodd" clip-rule="evenodd" d="M0.283203 8.0047V15.8703L1.80197 15.8308L3.32073 15.7913L3.39137 10.6791L3.46201 5.56686L6.92338 10.324C8.82713 12.9404 10.494 15.2096 10.6273 15.3666C10.8582 15.6385 10.8698 15.5287 10.8695 13.0782L10.8691 10.5043L7.25977 5.56519C5.27464 2.84866 3.55059 0.51656 3.42839 0.382578C3.24402 0.180421 2.95792 0.1391 1.74475 0.1391H0.283203V8.0047ZM11.8682 7.92567V15.7217H13.4234H14.9788L14.9422 7.96519L14.9057 0.208665L13.387 0.169152L11.8682 0.129639V7.92567ZM15.9653 1.66953V3.19997H19.9857H24.0063L24.3627 3.65214C24.559 3.90091 26.5852 6.70258 28.8658 9.87823L33.0121 15.6521L37.8398 15.6887L42.6673 15.7253V10.0887V4.45214H41.1132H39.5591V8.55649V12.6608H37.1014H34.6437L33.3127 10.8174C32.5806 9.80352 30.5898 7.03301 28.8887 4.66084C27.1875 2.28867 25.7295 0.301743 25.6487 0.245534C25.5679 0.189326 23.3561 0.142439 20.7335 0.141186L15.9653 0.1391V1.66953ZM43.6563 1.66953V3.19997H46.2817C47.7257 3.19997 48.886 3.25103 48.8601 3.31336C48.8342 3.37569 47.7208 4.42432 46.3858 5.6438C45.0508 6.86313 43.9453 7.91705 43.9294 7.98578C43.9133 8.05451 45.7684 9.82035 48.0519 11.91L52.2037 15.7093L54.4642 15.7117L56.7247 15.7142L55.7309 14.7788C55.1843 14.2643 53.2926 12.5308 51.5271 10.9263C48.4977 8.17305 48.3311 7.99593 48.5651 7.77736C48.7014 7.65006 50.5931 5.93082 52.7689 3.95684C54.9446 1.983 56.7459 0.316491 56.7718 0.253465C56.7977 0.190578 53.8573 0.1391 50.2375 0.1391H43.6563V1.66953ZM59.4328 1.348C56.5755 4.01458 55.6811 4.84686 54.5329 5.90745C53.8735 6.51656 52.7697 7.54947 52.08 8.20296L50.826 9.39114L51.926 10.4C52.5309 10.9547 53.0636 11.4081 53.1093 11.4073C53.1553 11.4066 53.6059 11.0323 54.111 10.5758L55.0293 9.74578L57.8549 9.77722L60.6806 9.80867L60.7187 12.7652L60.7568 15.7217H62.3081H63.8594V7.9304V0.1391H62.2937H60.728L59.4328 1.348ZM31.4355 2.47427C30.5808 3.67691 29.8878 4.72442 29.8956 4.8022C29.9033 4.87997 30.3084 5.49256 30.7958 6.16345L31.6818 7.38334L33.1832 5.29166L34.6844 3.19997H38.6759H42.6673V1.7391V0.27823L37.8285 0.28296L32.9896 0.287691L31.4355 2.47427ZM58.9146 6.12477L57.2898 7.64811L58.9852 7.61527L60.6806 7.58258L60.7207 6.08693C60.7427 5.26425 60.7109 4.59364 60.65 4.59642C60.5891 4.5992 59.8081 5.28693 58.9146 6.12477ZM15.9653 7.99997V9.46084H19.2854H22.6055V7.99997V6.5391H19.2854H15.9653V7.99997ZM25.5806 10.6387L24.1292 12.6608H20.0472H15.9653V14.1913V15.7217H20.829H25.6928L27.1893 13.6391C28.0126 12.4936 28.7225 11.4628 28.7672 11.3483C28.831 11.1842 27.7174 9.40352 27.127 8.72567C27.0748 8.66571 26.379 9.52651 25.5806 10.6387ZM46.0357 14.157L44.6712 15.6521L46.7358 15.6908L48.8004 15.7295L49.3011 15.2275L49.802 14.7255L48.6743 13.6932C48.0539 13.1254 47.5135 12.6611 47.4734 12.6614C47.4331 12.6615 46.7862 13.3346 46.0357 14.157Z" fill="#7F22FE"/>
</g>
<defs>
<clipPath id="clip0_2002_8166">
<rect width="64" height="16" fill="white"/>
</clipPath>
</defs>
</svg>
