<svg width="254" height="64" viewBox="0 0 254 64" fill="none" xmlns="http://www.w3.org/2000/svg">
<path fill-rule="evenodd" clip-rule="evenodd" d="M2.06055 32.019V63.4814L8.04316 63.3234L14.0258 63.1653L14.304 42.7165L14.5823 22.2677L28.2171 41.2963C35.7162 51.7617 42.282 60.8385 42.8074 61.4668C43.7168 62.5543 43.7624 62.1152 43.7613 52.3132L43.7596 42.0175L29.5421 22.261C21.7225 11.3949 14.9312 2.06649 14.4498 1.53056C13.7236 0.721929 12.5966 0.556642 7.81776 0.556642H2.06055V32.019ZM47.6953 31.7029V62.8871H53.8215H59.9483L59.8041 31.861L59.6605 0.834903L53.6779 0.676851L47.6953 0.518799V31.7029ZM63.8345 6.67838V12.8001H79.6714H95.5089L96.913 14.6088C97.686 15.6039 105.668 26.8106 114.651 39.5132L130.984 62.6088L150.001 62.7552L169.017 62.9016V40.3552V17.8088H162.895H156.774V34.2262V50.6436H147.092H137.411L132.168 43.2697C129.284 39.2143 121.442 28.1323 114.741 18.6436C108.04 9.1549 102.297 1.20722 101.978 0.982381C101.66 0.757547 92.9478 0.569999 82.6171 0.56499L63.8345 0.556642V6.67838ZM172.913 6.67838V12.8001H183.255C188.943 12.8001 193.513 13.0044 193.411 13.2537C193.309 13.503 188.923 17.6975 183.665 22.5754C178.406 27.4528 174.051 31.6684 173.988 31.9434C173.925 32.2183 181.233 39.2817 190.228 47.6401L206.582 62.8376L215.487 62.847L224.391 62.857L220.476 59.1155C218.323 57.0575 210.871 50.1233 203.917 43.7054C191.984 32.6924 191.327 31.984 192.249 31.1097C192.786 30.6005 200.238 23.7235 208.808 15.8276C217.379 7.93223 224.474 1.26621 224.576 1.0141C224.679 0.762555 213.096 0.556642 198.837 0.556642H172.913V6.67838ZM235.058 5.39226C223.803 16.0586 220.28 19.3877 215.757 23.63C213.16 26.0665 208.812 30.1981 206.095 32.8121L201.155 37.5648L205.488 41.6001C207.871 43.819 209.969 45.6327 210.15 45.6293C210.33 45.6266 212.106 44.1295 214.095 42.3036L217.713 38.9834L228.843 39.1091L239.974 39.2349L240.124 51.061L240.274 62.8871H246.385H252.495V31.7219V0.556642H246.328H240.161L235.058 5.39226ZM124.774 9.8973C121.407 14.7079 118.677 18.8979 118.708 19.209C118.738 19.5201 120.334 21.9705 122.254 24.654L125.744 29.5336L131.658 21.1669L137.571 12.8001H153.294H169.017V6.95664V1.11316L149.956 1.13209L130.895 1.15101L124.774 9.8973ZM233.017 24.4993L226.617 30.5927L233.295 30.4613L239.974 30.3306L240.132 24.3479C240.218 21.0572 240.093 18.3748 239.853 18.3859C239.614 18.3971 236.537 21.1479 233.017 24.4993ZM63.8345 32.0001V37.8436H76.9127H89.991V32.0001V26.1566H76.9127H63.8345V32.0001ZM101.71 42.5551L95.9931 50.6436H79.9135H63.8345V56.7653V62.8871H82.9933H102.152L108.047 54.5565C111.29 49.9747 114.087 45.8514 114.263 45.3934C114.514 44.7372 110.128 37.6143 107.802 34.9029C107.596 34.6631 104.855 38.1063 101.71 42.5551ZM182.286 56.6284L176.911 62.6088L185.043 62.7635L193.176 62.9182L195.149 60.9103L197.121 58.9024L192.679 54.773C190.236 52.5018 188.107 50.6447 187.949 50.6458C187.79 50.6464 185.242 53.3388 182.286 56.6284Z" fill="white"/>
</svg>
