<svg width="112" height="112" viewBox="0 0 112 112" fill="none" xmlns="http://www.w3.org/2000/svg">
<path d="M0 56C0 25.0721 25.0721 0 56 0V0C86.9279 0 112 25.0721 112 56V56C112 86.9279 86.9279 112 56 112V112C25.0721 112 0 86.9279 0 56V56Z" fill="#12122E" fill-opacity="0.05"/>
<path d="M56 0.25C86.7899 0.25 111.75 25.2101 111.75 56C111.75 86.7899 86.7899 111.75 56 111.75C25.2101 111.75 0.25 86.7899 0.25 56C0.25 25.2101 25.2101 0.25 56 0.25Z" stroke="#12122E" stroke-opacity="0.1" stroke-width="0.5"/>
<path d="M8 56C8 29.4903 29.4903 8 56 8V8C82.5097 8 104 29.4903 104 56V56C104 82.5097 82.5097 104 56 104V104C29.4903 104 8 82.5097 8 56V56Z" fill="#12122E" fill-opacity="0.05"/>
<path d="M56 8.25C82.3716 8.25 103.75 29.6284 103.75 56C103.75 82.3716 82.3716 103.75 56 103.75C29.6284 103.75 8.25 82.3716 8.25 56C8.25 29.6284 29.6284 8.25 56 8.25Z" stroke="#12122E" stroke-opacity="0.1" stroke-width="0.5"/>
<path d="M16 56C16 33.9086 33.9086 16 56 16V16C78.0914 16 96 33.9086 96 56V56C96 78.0914 78.0914 96 56 96V96C33.9086 96 16 78.0914 16 56V56Z" fill="#12122E" fill-opacity="0.05"/>
<path d="M56 16.25C77.9533 16.25 95.75 34.0467 95.75 56C95.75 77.9533 77.9533 95.75 56 95.75C34.0467 95.75 16.25 77.9533 16.25 56C16.25 34.0467 34.0467 16.25 56 16.25Z" stroke="#12122E" stroke-opacity="0.1" stroke-width="0.5"/>
<path d="M67.7333 80L64 76.2667L69.6 70.6667L64 65.0667L67.7333 61.3333L73.3333 66.9333L78.9333 61.3333L82.6667 65.0667L77.1333 70.6667L82.6667 76.2667L78.9333 80L73.3333 74.4667L67.7333 80ZM56 80C49.8667 80 44.5227 77.9671 39.968 73.9013C35.4133 69.8356 32.8018 64.7573 32.1333 58.6667H37.6C38.2222 63.2889 40.2782 67.1111 43.768 70.1333C47.2578 73.1556 51.3351 74.6667 56 74.6667C56.4889 74.6667 56.9449 74.656 57.368 74.6347C57.7911 74.6133 58.224 74.5573 58.6667 74.4667V79.8667C58.2222 79.9111 57.7884 79.9449 57.3653 79.968C56.9422 79.9911 56.4871 80.0018 56 80ZM32 50.6667V34.6667H37.3333V40.9333C39.6 38.0889 42.3671 35.8889 45.6347 34.3333C48.9022 32.7778 52.3573 32 56 32C62.6667 32 68.3333 34.3333 73 39C77.6667 43.6667 80 49.3333 80 56H74.6667C74.6667 50.8 72.856 46.3893 69.2347 42.768C65.6133 39.1467 61.2018 37.3351 56 37.3333C52.9333 37.3333 50.0667 38.0444 47.4 39.4667C44.7333 40.8889 42.4889 42.8444 40.6667 45.3333H48V50.6667H32ZM59.6 63.3333L53.3333 57.0667V42.6667H58.6667V54.9333L62.4 58.6667L59.6 63.3333Z" fill="url(#paint0_linear_2002_6531)"/>
<defs>
<linearGradient id="paint0_linear_2002_6531" x1="57.3333" y1="32" x2="57.3333" y2="80.0002" gradientUnits="userSpaceOnUse">
<stop stop-color="#606060"/>
<stop offset="1" stop-color="#909090"/>
</linearGradient>
</defs>
</svg>
